<svg xmlns="http://www.w3.org/2000/svg" width="1200" height="630" viewBox="0 0 1200 630" role="img" aria-labelledby="title desc">
  <title id="title">Linewise</title>
  <desc id="desc">A Vim-inspired Astro blog starter.</desc>
  <rect width="1200" height="630" fill="#10130f"/>
  <path d="M0 96h1200M0 192h1200M0 288h1200M0 384h1200M0 480h1200M120 0v630M240 0v630M360 0v630M480 0v630M600 0v630M720 0v630M840 0v630M960 0v630M1080 0v630" stroke="#25301f" stroke-width="2"/>
  <rect x="92" y="86" width="1016" height="458" rx="18" fill="#171b14" stroke="#34402b" stroke-width="4"/>
  <rect x="92" y="86" width="1016" height="66" rx="18" fill="#1f261a"/>
  <text x="132" y="130" fill="#9bd86f" font-family="SFMono-Regular, Consolas, monospace" font-size="28">NORMAL</text>
  <text x="132" y="308" fill="#e8f0df" font-family="Inter, system-ui, sans-serif" font-size="104" font-weight="800">Linewise</text>
  <text x="138" y="384" fill="#aebba3" font-family="SFMono-Regular, Consolas, monospace" font-size="34">:buffers  :quickfix  /search</text>
  <text x="138" y="454" fill="#d7f7aa" font-family="Inter, system-ui, sans-serif" font-size="36">A Vim-inspired Astro blog starter</text>
</svg>
